<?xml version="1.0" encoding="UTF-8" standalone="no"?>
<!-- Created with Inkscape (http://www.inkscape.org/) -->

<svg
   width="8.5420256mm"
   height="13.500001mm"
   viewBox="0 0 8.5420256 13.500001"
   version="1.1"
   id="svg1"
   sodipodi:docname="dead_tree2.svg"
   xml:space="preserve"
   inkscape:version="1.3 (0e150ed6c4, 2023-07-21)"
   xmlns:inkscape="http://www.inkscape.org/namespaces/inkscape"
   xmlns:sodipodi="http://sodipodi.sourceforge.net/DTD/sodipodi-0.dtd"
   xmlns="http://www.w3.org/2000/svg"
   xmlns:svg="http://www.w3.org/2000/svg"><sodipodi:namedview
     id="namedview1"
     pagecolor="#ffffff"
     bordercolor="#000000"
     borderopacity="0.25"
     inkscape:showpageshadow="2"
     inkscape:pageopacity="0.0"
     inkscape:pagecheckerboard="0"
     inkscape:deskcolor="#d1d1d1"
     inkscape:document-units="mm"
     inkscape:zoom="3.7863291"
     inkscape:cx="2.5090265"
     inkscape:cy="62.98977"
     inkscape:window-width="2560"
     inkscape:window-height="1369"
     inkscape:window-x="-8"
     inkscape:window-y="-8"
     inkscape:window-maximized="1"
     inkscape:current-layer="layer1" /><defs
     id="defs1"><style
       id="style1">&#10;&#10;      .cls-3 {&#10;        fill: url(#linear-gradient-1);&#10;      }&#10;&#10;      .cls-4 {&#10;        fill: #fc9502;&#10;      }&#10;&#10;      .cls-5 {&#10;        fill: #fce202;&#10;      }&#10;    </style></defs><g
     inkscape:label="Ebene 1"
     inkscape:groupmode="layer"
     id="layer1"
     transform="translate(-67.370647,-106.36277)"><g
       id="g1"
       transform="matrix(0.05815181,0,0,0.05815181,64.891681,106.36271)"
       inkscape:export-filename="dead_tree2.svg"
       inkscape:export-xdpi="96"
       inkscape:export-ydpi="96"><path
         d="m 189.504,78.51 0.014,-0.001 c -0.02,-0.276 -0.088,-0.528 -0.188,-0.751 -0.424,-1.269 -1.611,-2.107 -3.06,-2.107 -0.479,0 -0.965,0.096 -1.348,0.255 -1.246,0.464 -2.342,0.941 -3.346,1.458 -2.793,1.433 -5.371,3.301 -7.66,5.551 -3.769,3.702 -7.09,8.416 -10.459,14.837 -1.504,2.865 -2.908,5.827 -4.266,8.691 -1.623,3.421 -3.285,6.93 -5.134,10.303 -0.813,-2.132 -1.721,-4.215 -2.61,-6.252 -1.22,-2.798 -2.48,-5.693 -3.443,-8.608 -1.225,-3.706 -1.676,-6.927 -1.379,-9.848 0.213,-2.066 0.812,-3.847 1.785,-5.289 1.092,-1.617 2.77,-2.797 4.549,-4.046 0.484,-0.34 0.967,-0.679 1.434,-1.025 3.369,-2.485 6.623,-5.845 9.412,-9.713 1.89,-2.614 3.24,-5.517 4.467,-8.266 1.334,-2.998 2.339,-6.131 3.308,-9.16 l 0.074,-0.233 c 0.186,-0.575 0.383,-1.143 0.58,-1.711 l 0.086,-0.248 c 0.506,-1.446 0.416,-2.664 -0.265,-3.616 -0.6,-0.842 -1.516,-1.325 -2.516,-1.325 -1.197,0 -2.324,0.674 -2.939,1.754 -0.293,0.507 -0.459,1.01 -0.627,1.517 -0.168,0.502 -0.364,0.998 -0.559,1.492 l -0.31,0.796 c -0.543,1.434 -1.129,2.962 -1.771,4.477 -1.299,3.042 -2.721,5.756 -4.227,8.064 -1.609,2.466 -3.767,4.625 -5.66,6.411 -1.154,1.086 -2.289,2 -3.472,2.791 -0.578,0.389 -1.17,0.765 -1.756,1.14 -0.758,0.482 -1.514,0.964 -2.246,1.47 -2.885,1.978 -4.951,4.228 -6.319,6.878 -1.379,2.665 -2.191,5.918 -2.418,9.67 -0.187,3.076 0.19,6.374 1.149,10.083 0.863,3.332 2.07,6.566 3.238,9.694 1.092,2.927 2.223,5.955 3.035,8.99 0.18,0.67 0.453,1.648 0.731,2.643 0.25,0.895 0.562,2.006 0.765,2.748 -0.261,0.229 -0.535,0.473 -0.771,0.68 l -0.424,0.374 c -0.805,0.711 -1.633,1.356 -2.453,1.918 -2.656,1.812 -5.799,2.987 -9.168,3.44 l -1.053,-29.233 -0.228,-6.291 c -0.008,-0.282 -0.016,-0.563 -0.041,-0.833 -0.121,-1.259 -0.707,-2.232 -1.225,-3.09 -0.129,-0.215 -23.084,-33.651 -23.248,-33.941 l -0.498,-7.714 c -0.084,-1.064 -0.168,-2.129 -0.242,-3.195 -0.406,-5.855 -0.547,-11.969 2.545,-16.711 0.836,-1.283 1.598,-2.182 2.398,-2.827 0.969,-0.782 2.207,-1.257 3.291,-1.618 0.756,-0.251 1.518,-0.488 2.275,-0.725 2.205,-0.687 4.484,-1.396 6.662,-2.468 2.763,-1.359 5.146,-2.77 7.3,-4.316 2.489,-1.795 4.812,-3.921 7.1,-6.501 1.912,-2.153 3.672,-4.441 5.375,-6.654 l 0.75,-0.976 c 0.123,-0.158 0.275,-0.329 0.434,-0.511 0.896,-1.025 2.56,-2.932 1.502,-5.04 -0.539,-1.077 -1.661,-1.78 -2.889,-1.791 -1.029,0 -1.938,0.485 -2.684,1.416 l -1.064,1.277 c -3.219,3.867 -6.543,7.867 -10.514,10.892 -2.23,1.698 -4.652,3.139 -7.195,4.284 -2.502,1.126 -5.119,1.881 -8.279,2.668 -2.523,0.629 -5.453,1.545 -8.021,3.571 -2.029,1.601 -3.838,3.797 -5.375,6.528 -1.99,3.545 -2.926,7.408 -3.365,10.883 C 95.187,37.79 93.7,34.032 92.612,30.297 90.987,24.709 90.567,19.611 91.356,15.183 91.608,13.935 91.942,12.462 92.495,11 92.725,10.387 92.979,9.8 93.272,9.199 93.311,9.116 93.358,9.031 93.403,8.944 93.596,8.588 93.833,8.145 93.942,7.6 94.219,6.206 93.376,4.792 92.02,4.381 90.889,4.035 89.696,4.448 88.915,5.447 88.136,6.439 87.224,7.635 86.394,8.98 c -3.082,4.999 -4.693,11.392 -4.781,19.003 -0.051,4.423 0.416,9.021 1.434,14.055 0.822,4.083 1.91,8.088 3.25,11.958 0,0 6.725,16.732 7.848,19.724 2.139,5.685 4.326,11.622 6.51,17.646 0.904,2.496 1.809,4.991 2.703,7.485 l 1.129,3.198 -10.076,47.797 c -0.088,-0.211 -0.18,-0.428 -0.264,-0.631 l -0.52,-1.263 c -1.068,-2.612 -2.174,-5.313 -3.596,-7.866 -1.875,-3.369 -6.035,-9.242 -12.836,-10.712 -1.129,-0.243 -2.176,-0.231 -3.188,-0.221 -0.465,0.004 -0.932,0.011 -1.404,-0.015 -1.273,-0.065 -2.359,-0.674 -2.803,-1.027 -0.92,-0.723 -1.512,-1.867 -1.926,-2.782 -0.459,-1.014 -0.842,-2.053 -1.25,-3.153 l -0.441,-1.174 c -0.244,-0.646 -0.574,-1.496 -0.961,-2.326 l -0.098,-0.223 c -0.295,-0.686 -0.793,-1.831 -2.109,-2.251 -1.203,-0.382 -2.607,0.125 -3.299,1.197 -0.791,1.241 -0.381,2.521 -0.117,3.337 0.385,1.217 0.607,2.496 0.842,3.852 0.227,1.305 0.459,2.656 0.857,3.993 0.141,0.478 0.295,0.933 0.461,1.362 -0.529,-0.051 -1.066,-0.123 -1.602,-0.219 -1.443,-0.26 -2.898,-0.764 -4.258,-1.269 -1.316,-0.489 -2.715,-1.077 -4.281,-1.797 -0.566,-0.261 -1.123,-0.546 -1.682,-0.83 -0.789,-0.401 -1.604,-0.817 -2.453,-1.176 -0.873,-0.368 -1.785,-0.464 -2.57,-0.271 -1.121,0.274 -1.922,1.099 -2.191,2.263 -0.25,1.086 -0.115,2.635 1.941,3.85 l 0.588,0.347 c 1.689,0.996 3.434,2.023 5.217,2.961 6.492,3.416 12.85,4.834 18.895,4.213 0.387,-0.039 0.775,-0.084 1.162,-0.131 1.117,-0.135 2.172,-0.262 3.191,-0.213 1.063,0.049 2.02,0.397 3.109,1.129 1.938,1.303 3.5,3.364 4.777,6.304 0.891,2.05 1.605,4.247 2.297,6.37 0.254,0.774 0.775,2.352 0.775,2.352 1.652,5.38 4.186,8.812 6.578,10.991 l -4.656,22.095 -5.889,27.18 c -3.826,1.805 -21.24,10.016 -22.84,10.754 l -2.371,1.097 c -0.596,0.265 -1.496,0.667 -2.004,1.694 -0.482,0.973 -0.432,2.091 0.129,2.994 0.582,0.938 1.646,1.521 2.773,1.521 h 101.972 c 0.627,0 1.678,0 2.594,-0.822 1.033,-0.928 1.289,-2.45 0.617,-3.707 -0.515,-0.96 -1.332,-1.366 -1.869,-1.633 l -6.559,-3.271 c -4.976,-2.481 -14.052,-7.008 -16.927,-8.443 -0.061,-1.635 -0.186,-5.112 -0.312,-8.624 l -1.019,-28.229 c -0.233,-6.441 -0.467,-12.883 -0.698,-19.324 l -0.461,-12.758 c 6.12,-0.914 11.719,-3.429 16.233,-7.306 1.063,-0.916 2.154,-1.985 3.433,-3.369 2.071,-2.254 4.752,-6.378 5.655,-7.913 0.734,-1.252 1.461,-2.588 2.213,-4.086 1.941,-3.869 3.619,-7.91 5.238,-11.816 0.795,-1.912 1.586,-3.824 2.41,-5.719 1.492,-3.419 2.795,-6.155 4.104,-8.608 1.187,-2.216 2.816,-5.079 4.931,-7.57 1.752,-2.064 3.774,-3.843 6.014,-5.291 0.961,-0.621 2.01,-1.118 3.199,-1.682 2.266,-1.075 2.428,-2.666 2.342,-3.471 z"
         id="path1" /></g></g></svg>
